<?xml version="1.0" encoding="utf-8"?>
<!-- Generator: Adobe Illustrator 16.0.2, SVG Export Plug-In . SVG Version: 6.00 Build 0)  -->
<!DOCTYPE svg PUBLIC "-//W3C//DTD SVG 1.1//EN" "http://www.w3.org/Graphics/SVG/1.1/DTD/svg11.dtd">
<svg version="1.1" id="Ebene_1" xmlns="http://www.w3.org/2000/svg" xmlns:xlink="http://www.w3.org/1999/xlink" x="0px" y="0px"
	 width="600px" height="64px" viewBox="0 0 600 64" enable-background="new 0 0 600 64" xml:space="preserve">
<g>
	<g>
		<g>
			<polygon fill="#999384" points="254.629,8.71 229.303,8.696 223.761,24.119 249.037,24.105 			"/>
			<polygon fill="#999384" points="211.868,56.864 237.18,56.836 247.37,28.842 222.015,28.842 			"/>
			<polygon fill="#999384" points="349.695,56.836 375.043,56.836 385.183,28.82 359.906,28.806 			"/>
			<polygon fill="#999384" points="392.541,8.71 367.18,8.728 361.567,24.091 386.929,24.091 			"/>
			<path fill="#999384" d="M531.64,16.133l59.465-0.015l2.718-7.408L518.05,8.728c-3.725,0-7.372,0.78-10.452,2.118
				c-3.854,1.54-6.791,3.935-7.721,6.663l-2.519,6.858h25.347l1.703-4.769C525.168,17.68,528.368,16.09,531.64,16.133z"/>
			<path fill="#999384" d="M495.605,29.069l-6.891,19.032c-0.717,2.044-0.206,3.867,1.214,5.372
				c2.008,2.022,5.755,3.392,10.516,3.349l75.886,0.028l2.661-7.408h-59.423c-3.42-0.014-5.456-1.554-4.74-3.491l3.435-9.48h54.917
				l2.668-7.401H495.605z"/>
			<polygon fill="#999384" points="49.942,8.728 24.595,8.71 18.981,24.105 44.329,24.091 			"/>
			<polygon fill="#999384" points="90.035,8.71 82.612,29.069 50.098,29.069 42.541,29.069 17.2,29.069 7.074,56.85 32.358,56.836 
				39.794,36.47 79.909,36.441 72.543,56.821 97.777,56.836 115.325,8.71 			"/>
			<path fill="#999384" d="M213.308,12.109c-1.937-2.083-5.727-3.381-10.552-3.399l-60.892-0.014c-3.633,0-7.259,0.813-10.453,2.079
				c-3.768,1.597-6.635,4.006-7.721,6.692l-2.32,6.652l25.284-0.014l1.625-4.52c0.738-1.905,4.002-3.467,7.344-3.467l28.107-0.028
				c3.314,0,5.379,1.562,4.698,3.509l-3.406,9.47H147.74l-2.832-0.032l-25.347,0.032L109.45,56.836l25.34,0.014l7.344-20.38
				l40.136-0.014l-7.401,20.38l25.297-0.015l14.405-39.326C215.302,15.423,214.763,13.546,213.308,12.109z"/>
			<path fill="#999384" d="M333.991,29.101l0.476-0.032c3.712-0.014,7.707-2.934,9.026-6.61l0.185-0.543l2.229-6.025
				c0.88-2.842-1.143-5.304-4.961-6.425c-1.44-0.482-3.107-0.77-5.066-0.77l-70.393,0.032l-5.549,15.377l25.312-0.032l2.945-7.955
				h26.525c3.079,0.061,5.073,1.519,4.591,3.24l-2.235,6.198c-0.646,1.667-3.137,3.09-5.818,3.367
				c-0.504,0.071-0.93,0.177-1.455,0.131l-51.702,0.014l-10.034,27.752l75.73,0.028c5.145,0,10.196-1.461,13.724-3.761
				c2.199-1.44,3.768-3.157,4.491-4.981l3.697-10.304c0.858-2.015,0.256-3.863-1.206-5.41
				C342.563,30.414,338.731,29.111,333.991,29.101z M319.594,39.94l-2.172,5.996c-0.724,1.951-3.902,3.491-7.224,3.477h-34.146
				l4.74-12.943h34.09C318.146,36.47,320.303,38.045,319.594,39.94z"/>
			<path fill="#999384" d="M473.955,29.083l0.511-0.014c3.654,0,7.749-2.949,9.076-6.61l2.455-6.795l2.491-6.954L469.13,8.682
				c-3.321,0.028-6.55,1.579-7.203,3.534l-4.925,13.34c-0.574,1.667-3.051,3.073-5.797,3.42c-0.49,0.061-0.973,0.078-1.434,0.078
				h-28.796l7.423-20.568l-25.298-0.018l-17.584,48.083l25.439,0.071l7.33-20.153l36.637-0.028c3.279,0.043,5.358,1.562,4.655,3.541
				l-4.896,13.334c-0.652,1.93,1.405,3.491,4.74,3.505h19.316l6.954-19.018c0.745-2.001,0.276-3.863-1.214-5.339
				C482.499,30.414,478.745,29.069,473.955,29.083z"/>
		</g>
	</g>
</g>
<g>
</g>
<g>
</g>
<g>
</g>
<g>
</g>
<g>
</g>
<g>
</g>
</svg>
