<?xml version="1.0" encoding="UTF-8"?>
<svg id="Ebene_1" data-name="Ebene 1" xmlns="http://www.w3.org/2000/svg" viewBox="0 0 784.25 93">
  <defs>
    <style>
      .cls-1 {
        fill: #020b05;
      }

      .cls-2 {
        fill: #0c18ed;
      }

      .cls-3 {
        fill: #ff00cf;
      }
    </style>
  </defs>
  <g>
    <g>
      <path class="cls-2" d="M702.36,54.67v3.92h-1.45v-3.92l-2.85-5.61h1.58l1.99,4.19,2-4.19h1.58l-2.85,5.61Z"/>
      <path class="cls-2" d="M714.62,50.36h-4.65v2.78h3.96v1.3h-3.96v2.85h4.65v1.3h-6.09v-9.53h6.09v1.3Z"/>
      <path class="cls-2" d="M725.63,58.6h-1.54l-.66-1.91h-3.76l-.66,1.91h-1.54l3.49-9.53h1.16l3.49,9.53ZM720.09,55.45h2.93l-1.47-4.23-1.46,4.23Z"/>
      <path class="cls-2" d="M732.68,49.06c.46,0,.86.07,1.23.21.36.14.67.33.93.58.26.25.46.54.6.88s.21.72.21,1.12c0,.69-.18,1.24-.55,1.67-.37.42-.82.71-1.35.86l2.19,4.22h-1.69l-2.01-4.02h-1.81v4.02h-1.45v-9.53h3.69ZM730.43,50.36v2.99h2.14c.48,0,.87-.13,1.17-.39.3-.26.45-.62.45-1.1s-.15-.84-.45-1.1c-.3-.26-.69-.4-1.17-.4h-2.14Z"/>
      <path class="cls-2" d="M742.43,48.98c.64,0,1.19.09,1.65.25.46.17.89.45,1.31.83l-.91.91c-.29-.29-.62-.48-.96-.58-.35-.1-.73-.15-1.14-.15-.56,0-.99.14-1.29.41-.29.28-.44.63-.44,1.07,0,.18.03.34.08.5s.14.28.27.39c.12.11.26.19.42.26.16.07.36.12.62.17l1.14.17c.44.07.79.16,1.06.27.27.11.5.25.71.44.52.47.78,1.12.78,1.95,0,.44-.08.83-.25,1.18-.17.35-.41.64-.71.88-.3.24-.67.42-1.08.55-.42.13-.88.19-1.38.19-.72,0-1.35-.09-1.88-.28s-1.03-.51-1.49-.98l.95-.95c.35.35.72.59,1.13.72.4.13.84.2,1.32.2.63,0,1.12-.13,1.46-.38.34-.25.51-.62.51-1.09,0-.45-.13-.78-.38-.99-.23-.21-.58-.34-1.04-.4l-1.13-.16c-.79-.12-1.39-.38-1.79-.76-.47-.43-.71-1.04-.71-1.83,0-.41.07-.79.22-1.13.15-.34.36-.64.63-.88.27-.25.6-.43,1-.57.39-.13.84-.2,1.34-.2Z"/>
      <path class="cls-3" d="M702.59,64.13c.6,0,1.11.1,1.55.29.43.19.82.5,1.16.92.17.21.3.45.4.7.1.25.17.53.22.82s.08.61.09.95c0,.34.01.7.01,1.08s0,.75-.01,1.08c0,.34-.04.66-.09.95-.05.29-.12.57-.22.82-.1.25-.23.49-.4.7-.34.42-.73.72-1.16.92-.43.19-.95.29-1.55.29h-3.35v-9.53h3.35ZM700.69,65.42v6.94h1.74c.34,0,.64-.05.92-.15.27-.1.51-.26.72-.5.23-.26.37-.62.43-1.07s.08-1.04.08-1.75-.03-1.3-.08-1.75-.2-.81-.43-1.07c-.21-.23-.44-.4-.72-.49-.27-.1-.58-.15-.92-.15h-1.74Z"/>
      <path class="cls-3" d="M711.61,73.66h-1.45v-9.53h1.45v9.53Z"/>
      <path class="cls-3" d="M722.2,65.42h-4.65v2.91h3.96v1.3h-3.96v4.03h-1.45v-9.53h6.09v1.3Z"/>
      <path class="cls-3" d="M732.04,65.42h-4.65v2.91h3.96v1.3h-3.96v4.03h-1.45v-9.53h6.09v1.3Z"/>
      <path class="cls-3" d="M741.88,65.42h-4.65v2.78h3.96v1.3h-3.96v2.85h4.65v1.3h-6.09v-9.53h6.09v1.3Z"/>
      <path class="cls-3" d="M749.56,64.13c.46,0,.86.07,1.22.21.36.14.67.33.93.58.26.25.46.54.6.88s.21.72.21,1.12c0,.69-.18,1.24-.55,1.67-.37.42-.82.71-1.35.86l2.2,4.22h-1.69l-2.01-4.02h-1.81v4.02h-1.45v-9.53h3.7ZM747.31,65.42v2.99h2.14c.48,0,.87-.13,1.17-.39.3-.26.45-.62.45-1.1s-.15-.84-.45-1.1c-.3-.26-.69-.4-1.17-.4h-2.14Z"/>
      <path class="cls-3" d="M762.74,65.42h-4.65v2.78h3.96v1.3h-3.96v2.85h4.65v1.3h-6.09v-9.53h6.09v1.3Z"/>
      <path class="cls-3" d="M773.9,73.66h-1.32l-4.4-6.71v6.71h-1.45v-9.53h1.32l4.4,6.71v-6.71h1.45v9.53Z"/>
      <path class="cls-3" d="M784.25,65.42h-2.62v8.23h-1.45v-8.23h-2.62v-1.3h6.69v1.3Z"/>
    </g>
    <path class="cls-2" d="M644.84,48.1c-.78-1.83-1.69-3.53-2.72-5.12-5.75-8.07-15.17-13.35-25.81-13.35-2.48,0-4.9.29-7.22.83.32-.13,20.79-30.47,20.79-30.47h-9.72c-4.29,6.31-26.89,39.14-26.89,39.14-.4.57-.99,1.56-1.18,1.79-1.5,2.36-2.92,4.99-4.25,7.94-1.68,3.7-2.52,8.17-2.52,13.38,0,3.37.59,6.86,1.77,10.48.6,1.84,1.38,3.61,2.33,5.3,5.6,8.98,15.56,14.98,26.9,14.98,5.66,0,10.97-1.5,15.57-4.11,2.53-1.49,4.79-3.3,6.77-5.44,2.73-2.94,4.86-6.35,6.38-10.23,1.52-3.87,2.27-7.95,2.27-12.25,0-4.71-.82-9.01-2.46-12.88ZM616.3,85.91c-13.56,0-24.59-11.03-24.59-24.59s11.03-24.59,24.59-24.59,24.59,11.03,24.59,24.59-11.03,24.59-24.59,24.59Z"/>
    <path class="cls-3" d="M651.67,93c-17.47,0-31.68-14.21-31.68-31.68s14.21-31.68,31.68-31.68,31.68,14.21,31.68,31.68-14.21,31.68-31.68,31.68ZM651.67,36.73c-13.56,0-24.59,11.03-24.59,24.59s11.03,24.59,24.59,24.59,24.59-11.03,24.59-24.59-11.03-24.59-24.59-24.59Z"/>
  </g>
  <g>
    <g>
      <path class="cls-1" d="M52.1,49.46h-2.87c-2.62-.13-4.05.71-5.18,3.23l-16.78,31.98-16.53-31.98c-1.12-2.52-2.5-3.36-5.12-3.23h-2.81c-1.75,0-2.81.9-2.81,2.33,0,.39.19.97.5,1.61l18.78,35.92c1.19,2.52,2.56,3.36,5.24,3.23h5.36c2.68.13,4.06-.71,5.24-3.17l19.22-35.98c.38-.65.56-1.29.56-1.61,0-1.49-1.06-2.33-2.81-2.33"/>
      <path class="cls-1" d="M209.62,53.27c-2.87-3.23-7.3-4.26-18.28-4.26-14.48,0-18.59.13-22.4.65-6.3.84-9.98,4.13-10.98,9.88-.44,2.39-.56,4.97-.56,12.85,0,11.5,1.37,15.83,5.61,18.22,3.31,1.81,7.42,2.39,17.72,2.39,9.67,0,15.16-.06,17.9-.32,4.8-.32,7.92-1.36,10.11-3.36,3.18-2.91,4.18-7.04,4.18-17.83,0-4.78-.06-7.11-.25-9.11-.37-4.33-1.31-7.11-3.06-9.11M200.32,83.38c-2.25,1.29-4.74,1.49-16.54,1.49-16.16,0-16.59-.39-16.59-13.76s.12-13.95,18.22-13.95,17.9.13,17.9,13.63c0,8.59-.62,11.3-2.99,12.6"/>
      <path class="cls-1" d="M101.6,84.99h-31.07v-10.98h29.57c2.56,0,3.99-1.23,3.99-3.42s-1.44-3.36-3.99-3.36h-29.57v-10.21h30.69c2.5.13,3.99-1.16,4.05-3.55v-.45c-.06-2.39-1.56-3.68-4.05-3.55h-36.13c-2.81-.07-4.12,1.29-4.05,4.2v34.69c-.06,2.91,1.25,4.26,4.05,4.2h36.5c2.5.13,3.99-1.16,4.06-3.55v-.45c-.06-2.39-1.56-3.69-4.06-3.56"/>
      <path class="cls-1" d="M148.75,84.48h-26.33v-30.82c.07-2.78-1.24-4.2-3.8-4.2h-2c-2.56,0-3.87,1.42-3.8,4.2v34.69c-.06,2.91,1.25,4.27,4.05,4.2h31.88c2.56.13,3.99-1.23,4.05-3.62v-.84c-.06-2.39-1.5-3.75-4.05-3.62"/>
      <path class="cls-1" d="M428.5,84.48h-26.33v-30.82c.07-2.78-1.25-4.2-3.8-4.2h-2c-2.56,0-3.87,1.42-3.8,4.2v34.69c-.06,2.91,1.25,4.27,4.05,4.2h31.88c2.56.13,3.99-1.23,4.06-3.62v-.84c-.06-2.39-1.5-3.75-4.06-3.62"/>
      <path class="cls-1" d="M365.31,49.46h-2.87c-2.62-.13-4.05.71-5.18,3.23l-16.78,31.98-16.53-31.98c-1.13-2.52-2.5-3.36-5.12-3.23h-2.81c-1.75,0-2.81.9-2.81,2.33,0,.39.19.97.5,1.61l18.78,35.92c1.19,2.52,2.56,3.36,5.24,3.23h5.37c2.68.13,4.05-.71,5.24-3.17l19.22-35.98c.37-.65.56-1.29.56-1.61,0-1.49-1.06-2.33-2.81-2.33"/>
      <path class="cls-1" d="M474.64,84.48h-26.33v-30.82c.06-2.78-1.25-4.2-3.81-4.2h-2c-2.56,0-3.87,1.42-3.8,4.2v34.69c-.06,2.91,1.25,4.27,4.06,4.2h31.88c2.56.13,3.99-1.23,4.06-3.62v-.84c-.06-2.39-1.5-3.75-4.06-3.62"/>
      <path class="cls-1" d="M380.06,49.46h-2c-2.56,0-3.87,1.42-3.8,4.2v34.69c-.06,2.78,1.25,4.2,3.8,4.2h2c2.56,0,3.87-1.42,3.8-4.2v-34.69c.06-2.77-1.25-4.2-3.8-4.2"/>
      <path class="cls-1" d="M525.43,84.99h-31.07v-10.98h29.57c2.56,0,3.99-1.23,3.99-3.42s-1.44-3.36-3.99-3.36h-29.57v-10.21h30.69c2.5.13,3.99-1.16,4.06-3.55v-.45c-.07-2.39-1.56-3.68-4.06-3.55h-36.12c-2.81-.07-4.12,1.29-4.05,4.2v34.69c-.06,2.91,1.25,4.26,4.05,4.2h36.5c2.5.13,3.99-1.16,4.05-3.55v-.45c-.06-2.39-1.56-3.69-4.05-3.56"/>
    </g>
    <path class="cls-1" d="M305.6,59.55c-1-5.75-4.68-9.04-10.98-9.88-3.2-.44-6.62-.6-16.22-.64h-27.31c-9.6.04-13.02.2-16.22.64-6.3.84-9.98,4.13-10.98,9.88-.41,2.24-.55,4.66-.56,11.46.01,6.8.15,9.22.56,11.46,1,5.75,4.68,9.04,10.98,9.88,3.2.44,6.62.6,16.22.64h27.31c9.6-.04,13.02-.2,16.22-.64,6.3-.84,9.98-4.13,10.98-9.88.41-2.24.55-4.66.56-11.46-.01-6.8-.15-9.22-.56-11.46ZM263.02,81.83c-1.59,1.53-4.27,2.23-8.51,2.23h-19.1c-1.7.04-2.5-.78-2.46-2.55v-11.21c-.04-1.68.75-2.54,2.29-2.54h1.23c1.54,0,2.33.86,2.3,2.54v8.98h14.45c2.04,0,3.44-.27,4.46-.86,1.47-.82,2.08-2.82,2.08-6.7,0-7.44-1.06-8.85-6.54-8.85h-19.99c-1.57,0-2.44-.75-2.47-2.2v-.51c.04-1.46.89-2.22,2.47-2.22h20.67c4.8,0,7.9.94,9.61,2.86,1.55,1.8,2.16,4.74,2.16,10.5s-.72,8.69-2.65,10.53ZM297.43,81.91c-.04,1.45-.94,2.23-2.46,2.15h-22.12c-1.7.04-2.5-.78-2.46-2.55v-21.03c-.04-1.76.76-2.58,2.46-2.55h21.9c1.51-.08,2.42.71,2.46,2.15v.27c-.04,1.45-.95,2.23-2.46,2.15h-18.61v6.19h17.93c1.55,0,2.42.74,2.42,2.04s-.87,2.08-2.42,2.08h-17.93v6.66h18.83c1.51-.08,2.42.71,2.46,2.15v.27Z"/>
  </g>
</svg>