<?xml version="1.0" encoding="utf-8"?>
<!-- Generator: Adobe Illustrator 16.0.2, SVG Export Plug-In . SVG Version: 6.00 Build 0)  -->
<!DOCTYPE svg PUBLIC "-//W3C//DTD SVG 1.1//EN" "http://www.w3.org/Graphics/SVG/1.1/DTD/svg11.dtd">
<svg version="1.1" id="Ebene_1" xmlns="http://www.w3.org/2000/svg" xmlns:xlink="http://www.w3.org/1999/xlink" x="0px" y="0px"
	 width="600px" height="74px" viewBox="0 0 600 74" enable-background="new 0 0 600 74" xml:space="preserve">
<g>
	<path fill="#999384" d="M354.822,21.009l-17.77,33.216c-0.994,1.806-0.494,3.364,1.424,4.641c1.911,1.332,4.746,1.981,8.47,1.974
		c3.709,0.008,7.206-0.655,10.542-1.981c3.293-1.325,5.479-2.855,6.416-4.646l17.763-33.202c0.974-1.83,0.473-3.385-1.487-4.679
		c-1.939-1.294-4.753-1.928-8.455-1.946c-3.639,0.018-7.15,0.659-10.499,1.971C357.896,17.663,355.774,19.197,354.822,21.009
		 M361.796,7.883h26.979c7.234,0.021,12.819,1.107,16.655,3.751c3.871,2.609,4.81,5.715,2.863,9.298l-17.777,33.266
		c-1.91,3.631-6.19,6.705-12.826,9.356c-6.636,2.638-13.609,3.956-20.922,3.984h-26.81c-7.264,0-12.848-1.305-16.747-3.928
		c-3.836-2.588-4.781-5.726-2.828-9.322l17.734-33.265c1.904-3.628,6.22-6.762,12.897-9.347
		C347.644,9.046,354.463,7.915,361.796,7.883"/>
	<path fill="#999384" d="M533.986,34.312l26.853-0.024l7.136-13.306c0.931-1.816,0.444-3.381-1.509-4.668
		c-1.939-1.304-4.76-1.957-8.405-1.942c-3.674,0-7.144,0.673-10.557,1.942c-3.328,1.312-5.457,2.853-6.444,4.686L533.986,34.312z
		 M489.583,67.538l24.871-46.515c1.932-3.691,6.22-6.776,12.841-9.399c6.621-2.605,13.023-3.797,20.95-3.741h26.753
		c8.173,0,12.911,1.121,16.747,3.702c3.829,2.624,4.838,5.737,2.885,9.329l-24.941,46.625h-26.641l14.223-26.577l-26.88,0.043
		l-14.16,26.534H489.583z"/>
	<polygon fill="#999384" points="157.98,67.446 189.853,7.809 216.515,7.809 184.649,67.439 	"/>
	<path fill="#999384" d="M36.729,7.883h28.509L42.314,51.962l24.504-0.028c4.012-0.021,5.923-3.597,6.875-5.374L93.988,7.883h28.495
		L98.705,51.947h16.127c4.083-0.014,4.661,0.254,8.434-0.698c4.527-1.149,6.755-5.768,7.75-7.523l18.651-35.843h26.908
		L152.24,53.068c-3.321,6.191-6.262,8.652-11.734,11.064c-8.948,3.948-28.375,3.307-41.893,3.405L4.371,67.553L36.729,7.883z"/>
	<path fill="#999384" d="M449.855,67.538h26.669l6.311-11.854c1.058-2.073,4.739-8.265,3.963-11.197
		c-0.705-2.666-5.069-3.809-5.069-3.809s4.414-0.134,6.043-0.705c3.941-1.403,5.38-3.935,5.38-3.935s0.317-0.201,1.114-1.692
		c1.784-3.381,3.604-6.776,4.668-8.708c0.648-1.273,1.283-2.44,1.77-3.385c2.271-4.608,1.059-8.613-2.192-10.669
		c-3.949-2.507-9.393-3.67-16.727-3.702h-53.577l-31.823,59.655h26.599l14.223-26.549l13.412-0.028c3.681,0,6.487,0.663,8.419,1.961
		c1.968,1.318,2.44,2.877,1.488,4.668L449.855,67.538z M454.228,34.312l-13.454-0.024l10.619-19.931l13.469,0.014
		c3.638-0.028,6.466,0.638,8.412,1.907c1.975,1.305,2.426,2.859,1.474,4.704l-3.547,6.628c-0.952,1.844-3.109,3.384-6.48,4.707
		C461.377,33.631,457.887,34.312,454.228,34.312"/>
	<polygon fill="#999384" points="256.391,7.883 276.318,43.246 295.223,7.883 321.871,7.883 290.005,67.538 263.322,67.553 
		243.261,31.957 224.271,67.553 197.609,67.553 229.503,7.883 	"/>
</g>
<g>
</g>
<g>
</g>
<g>
</g>
<g>
</g>
<g>
</g>
<g>
</g>
</svg>
